<?xml version="1.0" standalone="no"?>
<!DOCTYPE svg PUBLIC "-//W3C//DTD SVG 20010904//EN"
 "http://www.w3.org/TR/2001/REC-SVG-20010904/DTD/svg10.dtd">
<svg version="1.0" xmlns="http://www.w3.org/2000/svg"
 width="512.000000pt" height="512.000000pt" viewBox="0 0 512.000000 512.000000"
 preserveAspectRatio="xMidYMid meet">
<metadata>
Created by potrace 1.11, written by Peter Selinger 2001-2013
</metadata>
<g transform="translate(0.000000,512.000000) scale(0.100000,-0.100000)"
fill="#000000" stroke="none">
<path d="M0 2560 l0 -2560 2560 0 2560 0 0 2560 0 2560 -2560 0 -2560 0 0
-2560z m2745 1580 c209 -24 363 -88 495 -208 154 -139 281 -377 326 -611 36
-188 36 -447 -1 -623 -52 -246 -186 -483 -351 -621 -83 -70 -219 -139 -329
-168 -115 -29 -304 -36 -418 -15 -95 18 -234 64 -309 102 -26 13 -52 24 -58
24 -7 0 -10 -164 -10 -505 0 -278 -1 -505 -2 -505 -2 0 -115 -9 -253 -20 -137
-11 -262 -20 -277 -20 l-28 0 0 1545 0 1545 148 0 147 -1 55 -74 c30 -41 58
-75 63 -75 4 0 33 17 65 39 114 77 270 140 432 175 132 28 178 30 305 16z"/>
<path d="M2355 3646 c-75 -17 -178 -59 -227 -91 l-38 -25 0 -521 0 -520 93
-44 c120 -57 195 -75 303 -75 195 0 331 76 412 228 111 208 136 481 66 705
-62 196 -136 282 -283 328 -86 26 -244 34 -326 15z"/>
</g>
</svg>
